<svg xmlns="http://www.w3.org/2000/svg" xmlns:xlink="http://www.w3.org/1999/xlink" id="Capa_1" x="0px" y="0px" viewBox="0 0 1080 1080" style="enable-background:new 0 0 1080 1080;" xml:space="preserve"><g>	<path d="M1034.33,647.57c0-63.83-24.86-123.85-70-168.98c-42.05-42.05-97.01-66.47-155.93-69.62l198.15-350.75H630.49H371.42V-0.75  H347.3v142.04h24.11V82.33h140.87v515.57c0,73.66-59.92,133.58-133.58,133.58c-72.02,0-130.88-57.3-133.46-128.71l46.56-46.56  l-17.05-17.05L174.32,639.59l17.05,17.05l31.96-31.96c12.76,74.23,77.55,130.91,155.37,130.91c86.95,0,157.7-70.74,157.7-157.7  V298.5c11.48,23.49,26.85,45.18,45.88,64.21c45.14,45.14,105.15,70,168.98,70h16.03L510.9,886.55h266.96  c-1.59,3.02-3.17,6.05-4.85,9l-0.06,0.1c-0.28,0.49-28.12,49.53-75.97,87.02c-58.55,45.88-136.72,71.86-220.11,73.17  c-2.17,0.03-4.33,0.05-6.5,0.05c-83.42,0-165.4-25.16-231.49-71.18c-37.81-26.32-70.14-59.16-96.12-97.6  c-21.02-31.11-37.99-66.01-50.44-103.74c-22.24-67.38-22.53-121.31-22.53-123.57c-0.01-16.17,1.68-59.53,17.61-112.93  c21.75-72.96,60.57-134.66,115.38-183.38c82.41-73.26,174.78-93.56,229.56-98.78v57.97h24.11V180.63h-24.11v59.85  c-57.73,5.19-157.04,26.27-245.58,104.98C128.55,397.2,87.34,462.64,64.29,539.96C47.46,596.41,45.67,642.57,45.68,659.8  c0.01,8.98,2.18,221.3,179.43,344.7c70.11,48.81,156.96,75.5,245.28,75.5c2.28,0,4.58-0.02,6.86-0.05  c88.62-1.39,171.94-29.2,234.6-78.3c51.34-40.22,80.4-91.13,82.1-94.16c3.94-6.88,7.55-14,10.96-21.18  c60.24-2.36,116.55-26.89,159.42-69.76C1009.47,771.41,1034.33,711.4,1034.33,647.57z M751.27,408.59  c-57.39,0-111.35-22.35-151.93-62.93c-40.58-40.58-62.93-94.54-62.93-151.93V82.33h94.08h334.75L780.92,408.59H751.27z   M795.35,862.43H552.22L794.99,432.7h0.36c57.39,0,111.35,22.35,151.93,62.93c40.58,40.58,62.93,94.54,62.93,151.93  c0,57.39-22.35,111.35-62.93,151.93C906.7,840.08,852.74,862.43,795.35,862.43z"></path></g></svg>