<svg xmlns="http://www.w3.org/2000/svg" xmlns:xlink="http://www.w3.org/1999/xlink" id="Capa_1" x="0px" y="0px" viewBox="0 0 1080 1080" style="enable-background:new 0 0 1080 1080;" xml:space="preserve"><path d="M948.74,1079.96c-272.34,0-544.67,0-817.01,0c-8.41-2.62-17.33-4.2-25.14-8.04c-33.92-16.69-49.87-44.65-49.86-82.18 c0.03-174.62,0.01-349.24,0.01-523.86c0-3.37,0-6.75,0-10.95c-8.71,0-16.53,0.03-24.36-0.01c-21.19-0.11-32.37-11.31-32.37-32.46 c-0.01-53.77-0.01-107.53,0-161.3c0-22.86,10.66-33.63,33.31-33.64c52.29-0.01,104.59,0,156.88,0c2.51,0,5.03,0,8.61,0 c-22.12-31.56-31.02-64.85-27.34-101.84C178.66,53.41,247.15-4.55,319.75,0.33c33.6,2.26,63.93,13.52,92,31.37 c52.5,33.38,92.34,78.8,124.22,131.69c1.18,1.95,2.44,3.84,3.7,5.81c0.93-0.78,1.41-1.02,1.66-1.41c1.04-1.67,2-3.4,3.01-5.09 c26.95-45.16,60.46-84.62,102.53-116.38C679.63,21.58,715.3,2.96,757.27,0.8C815.15-2.16,860.5,21.19,889.6,71.04 c29.12,49.89,26.51,100.63-4.08,149.76c-1.21,1.94-2.46,3.85-4.29,6.72c4.21,0,6.9,0,9.58,0c52.29,0,104.59-0.01,156.88,0.01 c20.77,0.01,32.22,11.19,32.25,31.82c0.08,54.51,0.07,109.01,0,163.52c-0.03,20.65-11.45,31.92-32.15,32.05 c-8.05,0.05-16.1,0.01-24.87,0.01c0,3.67,0,6.32,0,8.98c0,43.9,0,87.8,0,131.7c0,132.44,0.04,264.89-0.03,397.33 c-0.02,37.96-22,69.71-56.58,82.01C960.59,1076.99,954.61,1078.31,948.74,1079.96z M397.52,1022.87c0-189.55,0-378.33,0-567.35 c-94.7,0-188.96,0-283.74,0c0,3.5,0,6.42,0,9.35c0,109.24,0,218.48,0,327.72c0,66.33-0.18,132.67,0.27,199 c0.05,6.94,2.49,14.65,6.12,20.6c5.41,8.86,15.09,11.08,25.23,11.08c81.63-0.05,163.26-0.03,244.89-0.04 C392.48,1023.22,394.66,1023.01,397.52,1022.87z M682.55,1022.9c2.8,0.12,5.21,0.32,7.62,0.32c81.13,0.02,162.26,0.04,243.39,0 c21.54-0.01,32.76-11.32,32.76-32.92c0.01-175.56,0.01-351.11,0.01-526.67c0-2.64,0-5.27,0-8.1c-95.17,0-189.42,0-283.77,0 C682.55,644.87,682.55,833.63,682.55,1022.9z M455.15,284.66c0,246.57,0,492.24,0,738.17c56.7,0,112.82,0,169.33,0 c0-246.24,0-492.08,0-738.17C567.75,284.66,511.64,284.66,455.15,284.66z M397.4,397.52c0-37.97,0-75.27,0-112.84 c-2.22-0.17-3.91-0.41-5.6-0.41c-109.48-0.02-218.95,0.03-328.43-0.14c-6.01-0.01-6.76,2.4-6.73,7.46 c0.17,33.04,0.08,66.07,0.11,99.11c0,2.16,0.25,4.32,0.4,6.83C170.7,397.52,283.79,397.52,397.4,397.52z M682.65,284.58 c0,38.09,0,75.44,0,112.82c113.58,0,226.65,0,339.76,0c0-37.83,0-75.16,0-112.82C909,284.58,796.13,284.58,682.65,284.58z  M575.49,227.26c2.37,0.12,3.83,0.26,5.29,0.26c62.38,0.01,124.75,0.03,187.13-0.05c4.41-0.01,8.84-0.62,13.21-1.28 c39.97-6.04,70.85-41.65,71.39-82.25c0.56-41.75-29.18-78.17-69.57-85.33c-27.45-4.87-52.23,3.04-75.76,16.07 c-39.2,21.7-69.35,53.3-95.56,88.97C597.32,183.11,584.92,203.74,575.49,227.26z M503.83,226.91c-0.61-1.79-1.05-3.68-1.86-5.39 c-27.65-58.83-67.14-107.67-122.3-142.81c-20.79-13.25-43.5-21.96-68.83-21.51c-45.51,0.81-82,37.17-83.28,83.03 c-1.27,45.32,34.02,85.77,79.2,86.77c65.27,1.45,130.6,0.33,195.91,0.3C502.91,227.31,503.14,227.15,503.83,226.91z"></path></svg>